<svg xmlns="http://www.w3.org/2000/svg" viewBox="0 0 329.68 237.78"><defs><style>.cls-1{fill:#100b13;}.cls-2{fill:#c9313b;}</style></defs><title>Recurso 4</title><g id="Capa_2" data-name="Capa 2"><g id="Logo"><g id="_Grupo_" data-name="&lt;Grupo&gt;"><path id="_Trazado_compuesto_" data-name="&lt;Trazado compuesto&gt;" class="cls-1" d="M0,127.8H106.81V2.91Zm91.4-16.38H35.34L91.4,45.87Z"/><g id="_Grupo_2" data-name="&lt;Grupo&gt;"><path id="_Trazado_compuesto_2" data-name="&lt;Trazado compuesto&gt;" class="cls-1" d="M121.05,127.8V63.89h9.75v9.69q3.73-6.8,6.89-9a12,12,0,0,1,6.95-2.17,21.15,21.15,0,0,1,11.13,3.49L152,76a15.5,15.5,0,0,0-7.94-2.35,10.31,10.31,0,0,0-6.38,2.14,11.54,11.54,0,0,0-4,5.93,42.19,42.19,0,0,0-1.81,12.64V127.8Z"/><polygon id="_Trazado_" data-name="&lt;Trazado&gt;" class="cls-1" points="179.56 47.29 191.63 47.29 191.63 38.64 179.56 38.64 179.56 0 167.63 6.67 167.63 38.64 158.83 38.64 158.83 47.29 167.63 47.29 167.63 140.99 179.56 129 179.56 47.29"/><path id="_Trazado_2" data-name="&lt;Trazado&gt;" class="cls-2" d="M198.74,225.49c-2.18.29-11,.54-12.37.54a8.5,8.5,0,0,1-4.1-.8,4.76,4.76,0,0,1-2.07-2.16q-.63-1.36-.63-6.11V136.28l-11.94,12v68.08q0,10,1.47,13.12a11.08,11.08,0,0,0,5.07,5q3.6,1.91,10.14,1.91c2.67,0,13.83-4.26,17.21-4.92Z"/></g><g id="_Grupo_3" data-name="&lt;Grupo&gt;"><path id="_Trazado_3" data-name="&lt;Trazado&gt;" class="cls-1" d="M123.56,161.55a17.53,17.53,0,0,1-2.42-8.32A12.6,12.6,0,0,1,125,144a12.39,12.39,0,0,1,9.1-3.84,12.62,12.62,0,0,1,9.64,4.38,19.21,19.21,0,0,1,4.75,11.28,6.81,6.81,0,0,0,1,3.41l9.37-9.42a6.84,6.84,0,0,0,1.14-2.89q0-3-6.53-7.53t-16.37-4.52q-13,0-20.82,8.7t-7.83,19.08a28.79,28.79,0,0,0,2.95,12.25q2.51,5.36,9.8,12.75l13.43-13.49C128.74,168.5,125,164.28,123.56,161.55Z"/><path id="_Trazado_4" data-name="&lt;Trazado&gt;" class="cls-2" d="M140.48,178.56,139,177.09l-13.43,13.49c.85.86,1.73,1.73,2.67,2.63q9.53,9.08,11.58,12.86a14.34,14.34,0,0,1-3.24,18.53,17.61,17.61,0,0,1-12.38,4.92,14.45,14.45,0,0,1-10.54-3.95q-4-3.95-5.05-14.39a16.75,16.75,0,0,0-.54-3L95.53,220.72s0,.11,0,.16q0,3.35,7.43,8.67t18.88,5.32A35.55,35.55,0,0,0,146,225.8q10.34-9.07,10.34-21a24.25,24.25,0,0,0-2.88-10.88Q150.6,188.21,140.48,178.56Z"/><path id="_Trazado_compuesto_3" data-name="&lt;Trazado compuesto&gt;" class="cls-2" d="M247.9,224.32a18.34,18.34,0,0,1-5.42,3.47,12.43,12.43,0,0,1-4.16,1,12.59,12.59,0,0,1-7.82-3.06q-7.88,11.93-18.05,11.93a12.71,12.71,0,0,1-10.28-4.76q-3.94-4.76-3.94-12.64a29.35,29.35,0,0,1,8.86-21.42,28.76,28.76,0,0,1,21.17-8.94,17.06,17.06,0,0,1,6.81,1,4.7,4.7,0,0,1,2.65,2.38,10.3,10.3,0,0,1,.49,3.45q0,10.23-5.58,25.11a8.57,8.57,0,0,0,5.85,2.57q3.66,0,9.41-6.4Zm-18.05-30.58a6.59,6.59,0,0,0-2.35-.33q-7.11,0-11.13,7.44a36,36,0,0,0-4,17.4q0,5.53,1.75,8.59A5.39,5.39,0,0,0,219,229.9q3.88,0,8.42-7.17a21.88,21.88,0,0,1-5.14-13.89Q222.25,200.09,229.85,193.74Z"/><path id="_Trazado_compuesto_4" data-name="&lt;Trazado compuesto&gt;" class="cls-2" d="M288.77,224.32Q275,237.78,267.6,237.78A7,7,0,0,1,262,235a10.68,10.68,0,0,1-2.3-7q0-7.71,8.26-20.68a30.41,30.41,0,0,1-8.86,2.9,63,63,0,0,1-11.16,14.11h-1.26v-4.92a71.42,71.42,0,0,0,7.71-9.52q-4.7-2.08-4.7-6.18a17.64,17.64,0,0,1,2.87-9q2.87-4.79,7.9-4.79,4.27,0,4.27,4.38,0,3.45-2.46,9.85,9.08-1,15.87-13.89l5-.22L278,204q-3.17,8.86-4.1,12.06a20.58,20.58,0,0,0-.93,5.66,5.81,5.81,0,0,0,1.07,3.67,3.46,3.46,0,0,0,2.87,1.37,6.24,6.24,0,0,0,3.78-1.34q1.81-1.34,8.1-7.41Z"/><path id="_Trazado_compuesto_5" data-name="&lt;Trazado compuesto&gt;" class="cls-2" d="M329.68,224.32a67.61,67.61,0,0,1-12.47,10.09,23.59,23.59,0,0,1-12.2,3.26,15.88,15.88,0,0,1-12-4.76q-4.57-4.76-4.57-12.53a31.42,31.42,0,0,1,8-21q8-9.38,17.83-9.38a12.1,12.1,0,0,1,8.15,2.63,8.64,8.64,0,0,1,3.06,6.89q0,11.32-24.07,18.38,2.19,10.67,11.43,10.67a13.33,13.33,0,0,0,6.89-1.94q3.28-1.94,9.9-8.62ZM301,214.2q14-3.94,14-14.55,0-5.25-3.83-5.25-3.61,0-6.89,5.5T301,214.2Z"/></g><polyline id="_Trazado_5" data-name="&lt;Trazado&gt;" class="cls-2" points="179.56 170.2 191.63 170.2 191.63 161.56 179.56 161.56"/><polyline id="_Trazado_6" data-name="&lt;Trazado&gt;" class="cls-2" points="191.63 161.56 158.83 161.56 158.83 170.2 191.63 170.2"/></g></g></g></svg>