<svg xmlns="http://www.w3.org/2000/svg" viewBox="0 0 81.66 100.04"><defs><style>.cls-1{fill:#fff;}</style></defs><title>Recurso 12</title><g id="Capa_2" data-name="Capa 2"><g id="Pasos"><path class="cls-1" d="M21.62,20.05a1.57,1.57,0,0,0-1.57,1.57,3.45,3.45,0,1,1-3.45-3.45,1.57,1.57,0,1,0,0-3.13,6.58,6.58,0,1,0,6.58,6.58,1.57,1.57,0,0,0-1.57-1.57Z"/><path class="cls-1" d="M21.62,38.43A1.57,1.57,0,0,0,20.05,40a3.45,3.45,0,1,1-3.45-3.45,1.57,1.57,0,1,0,0-3.13A6.58,6.58,0,1,0,23.18,40a1.57,1.57,0,0,0-1.57-1.57Z"/><path class="cls-1" d="M40,41.77H28.3a1.57,1.57,0,1,0,0,3.13H40a1.57,1.57,0,1,0,0-3.13Z"/><path class="cls-1" d="M40,35.09H28.3a1.57,1.57,0,1,0,0,3.13H40a1.57,1.57,0,0,0,0-3.13Z"/><path class="cls-1" d="M38.22,61.72a1.57,1.57,0,0,0-1.57-1.57H28.3a1.57,1.57,0,1,0,0,3.13h8.35a1.57,1.57,0,0,0,1.57-1.57Z"/><path class="cls-1" d="M40,53.47H28.3a1.57,1.57,0,1,0,0,3.13H40a1.57,1.57,0,1,0,0-3.13Z"/><path class="cls-1" d="M56.6,25A1.57,1.57,0,0,0,55,23.39H28.3a1.57,1.57,0,1,0,0,3.13H55A1.57,1.57,0,0,0,56.6,25Z"/><path class="cls-1" d="M28.3,19.84H48.35a1.57,1.57,0,1,0,0-3.13H28.3a1.57,1.57,0,1,0,0,3.13Z"/><path class="cls-1" d="M16.6,54.93a1.57,1.57,0,1,0,0-3.13,6.58,6.58,0,1,0,6.58,6.58,1.57,1.57,0,1,0-3.13,0,3.45,3.45,0,1,1-3.45-3.45Z"/><path class="cls-1" d="M33.31,76.86H4.91a1.78,1.78,0,0,1-1.78-1.78V4.91A1.78,1.78,0,0,1,4.91,3.13H61.72a1.78,1.78,0,0,1,1.78,1.78V56.7a1.57,1.57,0,0,0,3.13,0V4.91A4.91,4.91,0,0,0,61.72,0H4.91A4.91,4.91,0,0,0,0,4.91V75.08A4.91,4.91,0,0,0,4.91,80h28.4a1.57,1.57,0,0,0,0-3.13Z"/><path class="cls-1" d="M78.53,86.78A10.14,10.14,0,0,1,68.4,96.91H54.27a10.09,10.09,0,0,1-9.86-7.81l-3.5-14.86a6.75,6.75,0,0,1,1.81-6.35l2.39-2.39v5.41a1.57,1.57,0,1,0,3.13,0V41.07a2.77,2.77,0,0,1,2.34-2.83,2.61,2.61,0,0,1,2.89,2.6V68.4a1.57,1.57,0,0,0,3.13,0V65.89a2.61,2.61,0,0,1,2.89-2.6,2.77,2.77,0,0,1,2.34,2.84v3.94a1.57,1.57,0,0,0,3.13,0V67.56A2.61,2.61,0,0,1,67.84,65a2.77,2.77,0,0,1,2.34,2.84v3.94a1.57,1.57,0,0,0,3.13,0V69.24a2.61,2.61,0,0,1,2.89-2.6,2.77,2.77,0,0,1,2.34,2.83V86.78Zm-2-23.26a5.78,5.78,0,0,0-4.06,1.14,5.7,5.7,0,0,0-4.29-2.81A5.78,5.78,0,0,0,64.09,63a5.71,5.71,0,0,0-4.29-2.81,5.79,5.79,0,0,0-3.2.6V40.83a5.74,5.74,0,0,0-6.33-5.71,5.93,5.93,0,0,0-5.16,6v20l-4.6,4.6A9.86,9.86,0,0,0,37.87,75l3.5,14.86A13.21,13.21,0,0,0,54.27,100H68.4A13.28,13.28,0,0,0,81.66,86.78V69.47a5.93,5.93,0,0,0-5.16-6Z"/></g></g></svg>