<svg xmlns="http://www.w3.org/2000/svg" viewBox="0 0 120.94 90.58"><defs><style>.cls-1{fill:#fff;}</style></defs><title>Recurso 13</title><g id="Capa_2" data-name="Capa 2"><g id="Pasos"><path class="cls-1" d="M117.48,85a2.09,2.09,0,0,1-2.09,2.09H26.06A2.09,2.09,0,0,1,24,85V33.31a2.09,2.09,0,0,1,2.09-2.09h89.33a2.09,2.09,0,0,1,2.09,2.09V85ZM95.65,11l2.58,10.13-26,6.64H29.89L95.65,11Zm3.44,13.48.84,3.29H86.19l12.9-3.29ZM20.52,33.31h0v7.63L7.63,44.23h0L5,34.1l16.7-4.26a5.52,5.52,0,0,0-1.22,3.47Zm0,46-1.67.43a2.09,2.09,0,0,1-2.54-1.51L8.48,47.58l12-3.07V79.34Zm94.88-51.58H103.5l-6-23.59h0a5.55,5.55,0,0,0-6.74-4L77,3.67A1.73,1.73,0,1,0,77.88,7l13.71-3.5A2.09,2.09,0,0,1,94.13,5l.67,2.61L4.19,30.75l-.67-2.61A2.09,2.09,0,0,1,5,25.59L67.36,9.7a1.73,1.73,0,0,0-.85-3.35L4.18,22.24A5.55,5.55,0,0,0,.17,29L13,79.11a5.54,5.54,0,0,0,6.74,4l.82-.21V85a5.55,5.55,0,0,0,5.55,5.55h89.33A5.55,5.55,0,0,0,120.94,85V33.31a5.55,5.55,0,0,0-5.55-5.55Z"/><path class="cls-1" d="M31.16,73.76H68.82a1.73,1.73,0,1,0,0-3.46H31.16a1.73,1.73,0,0,0,0,3.46Z"/><path class="cls-1" d="M84.31,43.37a7.88,7.88,0,0,1,4.15,1.17,11.22,11.22,0,0,0-2.15,5.54v.1q0,.22,0,.43v.13c0,.18,0,.36,0,.54s0,.36,0,.54V52q0,.22,0,.43v.1A11.21,11.21,0,0,0,88.45,58a7.92,7.92,0,1,1-4.15-14.67Zm7.2,2.89h0l.22-.25.05-.06.2-.2.09-.09a7.92,7.92,0,1,1,0,11.28L92,56.84l-.19-.2-.05-.06-.22-.25h0a7.91,7.91,0,0,1,0-10.07Zm-7.2,16.41A11.31,11.31,0,0,0,91,60.51a11.38,11.38,0,1,0,0-18.44,11.38,11.38,0,1,0-6.66,20.6Z"/><path class="cls-1" d="M32.89,50.72h3.69a1.73,1.73,0,1,0,0-3.46H32.9a3,3,0,0,1,3-2.77h7.58a3,3,0,0,1,3,2.77H42.8a1.73,1.73,0,1,0,0,3.46h3.69v1.5H42.8a1.73,1.73,0,1,0,0,3.46h3.63a3,3,0,0,1-2.95,2.41H35.9A3,3,0,0,1,33,55.68h3.63a1.73,1.73,0,1,0,0-3.46H32.89v-1.5Zm3,10.82h7.58a6.47,6.47,0,0,0,6.46-6.46V47.5A6.47,6.47,0,0,0,43.48,41H35.9a6.47,6.47,0,0,0-6.46,6.46v7.58a6.47,6.47,0,0,0,6.46,6.46Z"/><path class="cls-1" d="M109.39,77.91H49.22a1.73,1.73,0,1,0,0,3.46h60.17a1.73,1.73,0,0,0,0-3.46Z"/><path class="cls-1" d="M38.21,77.91h-7a1.73,1.73,0,1,0,0,3.46h7a1.73,1.73,0,1,0,0-3.46Z"/></g></g></svg>