<svg xmlns="http://www.w3.org/2000/svg" viewBox="0 0 133.03 84.15"><defs><style>.cls-1{fill:#fff;}</style></defs><title>Recurso 14</title><g id="Capa_2" data-name="Capa 2"><g id="Pasos"><path class="cls-1" d="M126.5,53.32A2.36,2.36,0,0,1,124.14,51V48.6h4.72v4.72ZM110.95,80a9,9,0,1,1,9-9,9,9,0,0,1-9,9ZM37.63,80a9,9,0,1,1,9-9,9,9,0,0,1-9,9Zm75.54-66.93a4.59,4.59,0,0,1,4.58,4.58v.14H97.48V13.05ZM97.48,21.94H116l3.4,13.61H97.48V21.94Zm26.24,13.73-3.44-13.78a2.08,2.08,0,0,0,1.65-2V17.63a8.76,8.76,0,0,0-8.75-8.75H97.48V4.3A4.31,4.31,0,0,0,93.17,0h-80a4.31,4.31,0,0,0-4.3,4.3V42.07a2.08,2.08,0,1,0,4.17,0V4.3a.14.14,0,0,1,.14-.14h80a.14.14,0,0,1,.14.14V42.07a2.08,2.08,0,0,0,4.17,0V39.71h24.58a6.82,6.82,0,0,1,6.47,4.72h-6.48A2.08,2.08,0,0,0,120,46.52V51a6.53,6.53,0,0,0,6.53,6.53h2.36v9.16h-5.45a13.19,13.19,0,0,0-24.93,0h-1V51a2.08,2.08,0,1,0-4.17,0V66.65H50.1a13.19,13.19,0,0,0-24.93,0h-12a.14.14,0,0,1-.14-.14V61.93h9a2.08,2.08,0,1,0,0-4.17h-20a2.08,2.08,0,1,0,0,4.17h6.8v4.58a4.31,4.31,0,0,0,4.3,4.3H24.44s0,.09,0,.14a13.19,13.19,0,1,0,26.38,0s0-.09,0-.14H97.76s0,.09,0,.14a13.19,13.19,0,1,0,26.38,0s0-.09,0-.14h6.81A2.08,2.08,0,0,0,133,68.73V46.52a11,11,0,0,0-9.31-10.84Z"/><path class="cls-1" d="M37.63,66.65a4.3,4.3,0,1,0,4.3,4.3,4.31,4.31,0,0,0-4.3-4.3Z"/><path class="cls-1" d="M110.95,66.65a4.3,4.3,0,1,0,4.3,4.3,4.31,4.31,0,0,0-4.3-4.3Z"/><path class="cls-1" d="M53.32,59.85a2.08,2.08,0,0,0,2.08,2.08h31.1a2.08,2.08,0,1,0,0-4.17H55.4a2.08,2.08,0,0,0-2.08,2.08Z"/><path class="cls-1" d="M6.53,53H33.19a2.08,2.08,0,0,0,0-4.17H6.53a2.08,2.08,0,0,0,0,4.17Z"/><path class="cls-1" d="M69.48,20.61,51,39.13l-9.64-9.64a2.08,2.08,0,0,0-2.95,2.95L49.49,43.55a2.08,2.08,0,0,0,2.95,0l20-20a2.08,2.08,0,1,0-2.95-2.95Z"/></g></g></svg>