<svg xmlns="http://www.w3.org/2000/svg" viewBox="0 0 94.71 99.19"><defs><style>.cls-1{fill:#fff;}</style></defs><title>Recurso 3</title><g id="Capa_2" data-name="Capa 2"><g id="Capa_19" data-name="Capa 19"><path class="cls-1" d="M80.42,0H14.29a5,5,0,0,0-5,5v6.25L.26,30.87a2.64,2.64,0,0,0,.81,3.26V38A6.6,6.6,0,0,0,6,44.4V94.23a5,5,0,0,0,5,5H83.73a5,5,0,0,0,5-5V44.4a6.6,6.6,0,0,0,5-6.38V34.13a2.64,2.64,0,0,0,.81-3.26L85.38,11.21V5a5,5,0,0,0-5-5ZM12.64,5a1.65,1.65,0,0,1,1.65-1.65H80.42A1.65,1.65,0,0,1,82.07,5v5H12.64ZM4.37,38V34.72H11V38a3.31,3.31,0,1,1-6.61,0Zm76,0a3.31,3.31,0,1,1-6.61,0V34.72h6.61ZM70.5,38a3.31,3.31,0,1,1-6.61,0V34.72H70.5Zm-9.92,0A3.31,3.31,0,1,1,54,38V34.72h6.61Zm-9.92,0a3.31,3.31,0,1,1-6.61,0V34.72h6.61Zm-9.92,0a3.31,3.31,0,1,1-6.61,0V34.72h6.61Zm-9.92,0a3.31,3.31,0,1,1-6.61,0V34.72h6.61Zm-9.92,0a3.31,3.31,0,1,1-6.61,0V34.72h6.61ZM52.32,95.88v-43A1.65,1.65,0,0,1,54,51.25H77.11a1.65,1.65,0,0,1,1.65,1.65v43Zm31.41,0H82.07v-43a5,5,0,0,0-5-5H54a5,5,0,0,0-5,5v43H11a1.65,1.65,0,0,1-1.65-1.65V44.4a6.58,6.58,0,0,0,3.31-2.05,6.52,6.52,0,0,0,9.92,0,6.52,6.52,0,0,0,9.92,0,6.52,6.52,0,0,0,9.92,0,6.52,6.52,0,0,0,9.92,0,6.52,6.52,0,0,0,9.92,0,6.52,6.52,0,0,0,9.92,0,6.52,6.52,0,0,0,9.92,0,6.58,6.58,0,0,0,3.31,2.05V94.23a1.65,1.65,0,0,1-1.65,1.65ZM90.34,38a3.31,3.31,0,1,1-6.61,0V34.72h6.61ZM3.65,31.41,12,13.23H82.67l8.39,18.18Zm0,0"/><path class="cls-1" d="M70.5,54.55H60.58a5,5,0,0,0-5,5V72.74a5,5,0,0,0,5,5H70.5a5,5,0,0,0,5-5V59.51a5,5,0,0,0-5-5Zm1.65,18.18a1.65,1.65,0,0,1-1.65,1.65H60.58a1.65,1.65,0,0,1-1.65-1.65V59.51a1.65,1.65,0,0,1,1.65-1.65H70.5a1.65,1.65,0,0,1,1.65,1.65Zm0,0"/><path class="cls-1" d="M73.81,82.66A1.65,1.65,0,1,1,72.15,81a1.65,1.65,0,0,1,1.65,1.65Zm0,0"/><path class="cls-1" d="M40.74,47.94H17.6a5,5,0,0,0-5,5V76a5,5,0,0,0,5,5H40.74a5,5,0,0,0,5-5V52.9a5,5,0,0,0-5-5ZM42.4,76a1.65,1.65,0,0,1-1.65,1.65H17.6A1.65,1.65,0,0,1,15.95,76V52.9a1.65,1.65,0,0,1,1.65-1.65H40.74A1.65,1.65,0,0,1,42.4,52.9Zm0,0"/></g></g></svg>