<svg xmlns="http://www.w3.org/2000/svg" viewBox="0 0 67.93 69.88"><defs><style>.cls-1{fill:#fff;}</style></defs><title>Recurso 1</title><g id="Capa_2" data-name="Capa 2"><g id="Capa_22" data-name="Capa 22"><path class="cls-1" d="M65.89,47.51a8.68,8.68,0,0,0,2-5.8,8.91,8.91,0,0,0-1.9-5,7.81,7.81,0,0,0-1.86-9c-2.32-2.12-6.27-3.07-11.73-2.81a45.84,45.84,0,0,0-7.19.92h0c-.73.13-1.51.29-2.29.47-.06-.94.1-3.26,1.83-8.49,2-6.22,1.93-11-.38-14.17A9.29,9.29,0,0,0,36.94,0a3.67,3.67,0,0,0-2.82,1.29c-1.62,1.89-1.43,5.36-1.23,7C31,13.43,25.56,26.11,21,29.64a1.57,1.57,0,0,0-.23.2,15.69,15.69,0,0,0-2.86,4.3A6,6,0,0,0,15,33.41H6.08A6.08,6.08,0,0,0,0,39.49V63.23a6.08,6.08,0,0,0,6.08,6.08H15A6.07,6.07,0,0,0,18.5,68.2l3.43.41a147.27,147.27,0,0,0,19.48,1.07c1.74.13,3.38.2,4.9.2a32.76,32.76,0,0,0,6.8-.61c4.47-.95,7.53-2.85,9.07-5.64a8.94,8.94,0,0,0,1-5.6,9.32,9.32,0,0,0,3.32-7.58,9.88,9.88,0,0,0-.6-2.94ZM6.08,65.37a2.14,2.14,0,0,1-2.13-2.13V39.47a2.14,2.14,0,0,1,2.13-2.13H15a2.14,2.14,0,0,1,2.13,2.13V63.22A2.14,2.14,0,0,1,15,65.35H6.08ZM62.15,45.8a2,2,0,0,0-.26,2.38,6.08,6.08,0,0,1,.67,2.44c.1,1.91-.82,3.61-2.75,5.06a2,2,0,0,0-.67,2.25,5.16,5.16,0,0,1-.39,3.77c-1,1.75-3.16,3-6.46,3.71a38.47,38.47,0,0,1-10.65.32h-.2a144.27,144.27,0,0,1-19-1h0l-1.48-.18a6.19,6.19,0,0,0,.13-1.29V39.47a6.18,6.18,0,0,0-.28-1.81,12.22,12.22,0,0,1,2.72-5c6.56-5.2,13-22.75,13.25-23.51a1.86,1.86,0,0,0,.09-1A9.12,9.12,0,0,1,37,3.92a5.24,5.24,0,0,1,4.12,2c1.49,2.06,1.43,5.74-.18,10.62-2.45,7.44-2.66,11.35-.72,13.08a3.19,3.19,0,0,0,3.19.57c.89-.2,1.74-.38,2.54-.51l.19,0c4.49-1,12.52-1.58,15.31,1,2.37,2.16.69,5,.5,5.33a2,2,0,0,0,.35,2.54A5.53,5.53,0,0,1,64,41.85a5.43,5.43,0,0,1-1.83,3.95Zm0,0"/></g></g></svg>